<mxfile host="app.diagrams.net" modified="2023-08-24T13:31:15.503Z" agent="Mozilla/5.0 (Windows NT 10.0; Win64; x64) AppleWebKit/537.36 (KHTML, like Gecko) Chrome/116.0.0.0 Safari/537.36" version="21.6.9" etag="lthJnaASd2majrN7Hgjf" type="github">
  <diagram name="PÃ¡gina-1" id="JxnUQd9-OGW2CqsnEGZy">
    <mxGraphModel>
      <root>
        <mxCell id="0" />
        <mxCell id="1" parent="0" />
      </root>
    </mxGraphModel>
  </diagram>
</mxfile>
